<?xml version="1.0" encoding="utf-8"?>
<!-- Generator: Adobe Illustrator 25.4.1, SVG Export Plug-In . SVG Version: 6.00 Build 0)  -->
<svg version="1.1" id="Capa_1" xmlns:xodm="http://www.corel.com/coreldraw/odm/2003"
	 xmlns="http://www.w3.org/2000/svg" xmlns:xlink="http://www.w3.org/1999/xlink" x="0px" y="0px" viewBox="0 0 512 512"
	 style="enable-background:new 0 0 512 512;" xml:space="preserve">
<style type="text/css">
	.st0{fill-rule:evenodd;clip-rule:evenodd;fill:url(#SVGID_1_);}
</style>
<g id="Layer_x0020_1">
	
		<linearGradient id="SVGID_1_" gradientUnits="userSpaceOnUse" x1="255.9998" y1="511.1009" x2="255.9998" y2="2.8989" gradientTransform="matrix(1 0 0 -1 0 513)">
		<stop  offset="0" style="stop-color:#3597DA"/>
		<stop  offset="0.4902" style="stop-color:#616EC4"/>
		<stop  offset="1" style="stop-color:#8C46AE"/>
	</linearGradient>
	<path class="st0" d="M256,385C185,385,127.2,327.1,127.2,256S185,127.2,256,127.2C327.1,127.2,385,185,385,256S327.1,385,256,385
		L256,385z M321.5,510.1H190.7c-12.5,0-22.6-10.1-22.6-22.6V435c-7.8-3.9-15.5-8.3-22.9-13.3L99.6,448c-5.2,3-11.3,3.8-17.2,2.3
		c-5.9-1.6-10.7-5.3-13.7-10.5L3.3,326.4c-3-5.2-3.8-11.3-2.3-17.2c1.6-5.9,5.3-10.7,10.5-13.7l45.5-26.3c-0.3-4.2-0.4-8.6-0.4-13.2
		c0-4.6,0.1-9,0.4-13.2l-45.6-26.3c-10.8-6.3-14.5-20.2-8.2-31L68.6,72.3c3-5.2,7.8-9,13.7-10.6c5.9-1.6,12-0.8,17.2,2.3L145,90.2
		c7.3-4.9,15-9.3,22.9-13.2V24.5c0-12.5,10.1-22.6,22.6-22.6h130.8c12.5,0,22.6,10.1,22.6,22.6v52.6c8.1,4,15.7,8.4,22.9,13.2
		L412.2,64c5.2-3,11.4-3.8,17.2-2.2c5.8,1.6,10.7,5.3,13.7,10.6l65.5,113.3c6.2,10.8,2.5,24.7-8.3,30.9L455,242.9
		c0.3,4.5,0.5,8.9,0.5,13.2c0,4.3-0.2,8.6-0.5,13.2l45.6,26.3c5.2,2.9,8.9,7.8,10.5,13.6c1.6,5.9,0.8,12-2.2,17.3l-65.5,113.4
		c-6.3,10.8-20.2,14.5-30.9,8.3l-45.5-26.3c-7.3,4.9-15,9.4-22.9,13.3v52.5C344.2,500,334,510.1,321.5,510.1L321.5,510.1z
		 M145.5,406.5c1.4,0,2.8,0.4,4,1.3c9.1,6.4,18.7,12,28.5,16.5c2.5,1.1,4.1,3.6,4.1,6.4v56.9c0,4.8,3.9,8.6,8.6,8.6h130.8
		c4.8,0,8.6-3.9,8.6-8.6v-56.9c0-2.7,1.6-5.2,4-6.3c10-4.6,19.5-10.2,28.5-16.5c2.2-1.6,5.2-1.7,7.5-0.3l49.3,28.5
		c4.1,2.4,9.4,1,11.8-3.1l65.5-113.3c1.1-2,1.4-4.3,0.8-6.6c-0.6-2.2-2-4-4-5.1L444,279.4c-2.4-1.4-3.7-4-3.5-6.7
		c0.5-5.8,0.8-11.2,0.8-16.4c0-5.3-0.3-10.8-0.8-16.4c-0.2-2.7,1.1-5.3,3.5-6.7l49.4-28.5c4.1-2.4,5.6-7.7,3.2-11.8L431.1,79.7
		c-1.2-2-3-3.4-5.3-4.1c-2.2-0.6-4.6-0.3-6.6,0.9l-49.4,28.5c-2.4,1.4-5.3,1.2-7.6-0.4c-8.6-6.1-18.2-11.7-28.4-16.4
		c-2.5-1.1-4-3.6-4-6.3v-57c0-4.7-3.9-8.6-8.6-8.6H190.5c-4.8,0-8.6,3.9-8.6,8.6v57c0,2.7-1.6,5.2-4.1,6.4
		c-10,4.6-19.6,10.1-28.5,16.4c-2.2,1.6-5.2,1.7-7.5,0.3L92.4,76.5c-2-1.2-4.3-1.5-6.5-0.9c-2.2,0.6-4.1,2-5.2,4L15.3,192.9
		c-2.4,4.1-0.9,9.5,3.1,11.8l49.4,28.5c2.4,1.4,3.7,4,3.5,6.7c-0.5,5.2-0.7,10.6-0.7,16.4c0,5.8,0.2,11.2,0.7,16.4
		c0.2,2.7-1.1,5.3-3.5,6.7l-49.4,28.5c-2,1.1-3.4,3-4,5.2c-0.6,2.2-0.3,4.6,0.8,6.5l65.5,113.4c1.1,2,3,3.4,5.2,4
		c2.2,0.6,4.5,0.3,6.5-0.8l49.4-28.5C143.1,406.8,144.3,406.5,145.5,406.5z M256,351.4c-52.6,0-95.3-42.8-95.3-95.3
		s42.8-95.4,95.3-95.4c52.6,0,95.4,42.8,95.4,95.4C351.5,308.6,308.7,351.4,256,351.4z M256,174.6c-44.9,0-81.4,36.5-81.4,81.5
		c0,44.9,36.5,81.4,81.4,81.4c44.9,0,81.5-36.5,81.5-81.4C337.5,211.2,301,174.6,256,174.6z M256,141.2
		c-63.4,0-114.8,51.5-114.8,114.8S192.8,370.9,256,370.9S371,319.4,371,256.1S319.4,141.2,256,141.2z"/>
</g>
</svg>
