<?xml version="1.0" encoding="utf-8"?>
<!-- Generator: Adobe Illustrator 25.4.1, SVG Export Plug-In . SVG Version: 6.00 Build 0)  -->
<svg version="1.1" id="Capa_1" xmlns:xodm="http://www.corel.com/coreldraw/odm/2003"
	 xmlns="http://www.w3.org/2000/svg" xmlns:xlink="http://www.w3.org/1999/xlink" x="0px" y="0px" viewBox="0 0 512 512"
	 style="enable-background:new 0 0 512 512;" xml:space="preserve">
<style type="text/css">
	.st0{fill-rule:evenodd;clip-rule:evenodd;fill:url(#SVGID_1_);}
</style>
<g id="Layer_x0020_1">
	
		<linearGradient id="SVGID_1_" gradientUnits="userSpaceOnUse" x1="74.3374" y1="522.6215" x2="395.2245" y2="-33.1713" gradientTransform="matrix(1 0 0 -1 0 513)">
		<stop  offset="0" style="stop-color:#3597DA"/>
		<stop  offset="0.4902" style="stop-color:#616EC4"/>
		<stop  offset="1" style="stop-color:#8C46AE"/>
	</linearGradient>
	<path class="st0" d="M375.4,474.1c-2.3,0-4.5-1.1-5.8-3.1c-2.1-3.2-1.2-7.6,2-9.7l32.4-21.5l-32.4-21.5c-3.2-2.1-4.1-6.5-2-9.7
		c2.1-3.2,6.5-4.1,9.7-2l41.2,27.4c2,1.3,3.1,3.5,3.1,5.8c0,2.3-1.2,4.5-3.1,5.8l-41.2,27.3C378.1,473.7,376.8,474.1,375.4,474.1z
		 M452.9,511.8H59.2c-3.9,0-7-3.1-7-7V7.2c0-3.9,3.1-7,7-7H354c2.1-0.2,4.2,0.5,5.7,2l98,98c1.5,1.5,2.2,3.6,2,5.7v398.9
		C459.9,508.7,456.7,511.8,452.9,511.8z M347.8,14.2H66.2v483.6h379.6V112.3h-90.9c-3.9,0-7-3.1-7-7V14.2z M361.8,98.3H436
		l-74.2-74.2L361.8,98.3L361.8,98.3z M416.7,196H95.5c-3.9,0-7-3.1-7-7c0-3.9,3.1-7,7-7h321.2c3.9,0,7,3.1,7,7
		C423.7,192.9,420.5,196,416.7,196z M416.7,242.7H95.5c-3.9,0-7-3.1-7-7s3.1-7,7-7h321.2c3.9,0,7,3.1,7,7S420.5,242.7,416.7,242.7z
		 M416.7,289.5H95.5c-3.9,0-7-3.1-7-7s3.1-7,7-7h321.2c3.9,0,7,3.1,7,7S420.5,289.5,416.7,289.5z M416.7,336.2H95.5
		c-3.9,0-7-3.1-7-7c0-3.9,3.1-7,7-7h321.2c3.9,0,7,3.1,7,7C423.7,333.1,420.5,336.2,416.7,336.2z M416.7,382.9H95.5
		c-3.9,0-7-3.1-7-7s3.1-7,7-7h321.2c3.9,0,7,3.1,7,7S420.5,382.9,416.7,382.9z M337.3,480.7c-0.6,0-1.3-0.1-2-0.3
		c-3.7-1.1-5.8-5-4.8-8.7l19.7-67.9c1.1-3.7,5-5.8,8.7-4.8c3.7,1.1,5.8,5,4.8,8.7L344,475.6C343.1,478.7,340.3,480.7,337.3,480.7
		L337.3,480.7z M194.3,154c-0.5,0-1.1-0.1-1.6-0.2c-3.8-0.9-6.1-4.6-5.2-8.4L213,36.8c0.9-3.8,4.6-6.1,8.4-5.2
		c3.8,0.9,6.1,4.6,5.2,8.4l-25.5,108.6C200.3,151.8,197.4,154,194.3,154z M170.4,143.4c-1.6,0-3.1-0.5-4.4-1.6l-53.3-43.8
		c-1.6-1.3-2.6-3.3-2.6-5.4c0-2.1,0.9-4.1,2.6-5.4L166,43.5c3-2.5,7.4-2,9.9,1c2.5,3,2,7.4-1,9.9l-46.7,38.4l46.7,38.4
		c3,2.5,3.4,6.9,1,9.9C174.4,142.5,172.4,143.4,170.4,143.4z M243.7,143.4c-2,0-4-0.9-5.4-2.6c-2.5-3-2-7.4,1-9.9L286,92.6
		l-46.7-38.4c-3-2.5-3.4-6.9-1-9.9c2.4-3,6.9-3.4,9.9-1l53.3,43.8c1.6,1.3,2.6,3.3,2.6,5.4c0,2.1-0.9,4.1-2.6,5.4l-53.3,43.8
		C246.8,142.9,245.2,143.4,243.7,143.4L243.7,143.4z M318.8,474.1c-1.3,0-2.7-0.4-3.9-1.2l-41.2-27.3c-2-1.3-3.1-3.5-3.1-5.8
		c0-2.3,1.2-4.5,3.1-5.8l41.2-27.4c3.2-2.1,7.6-1.3,9.7,2c2.1,3.2,1.3,7.6-2,9.7l-32.4,21.5l32.4,21.5c3.2,2.1,4.1,6.5,2,9.7
		C323.3,472.9,321.1,474.1,318.8,474.1z"/>
</g>
</svg>
