<?xml version="1.0" encoding="utf-8"?>
<!-- Generator: Adobe Illustrator 25.4.1, SVG Export Plug-In . SVG Version: 6.00 Build 0)  -->
<svg version="1.1" id="Capa_1" xmlns:xodm="http://www.corel.com/coreldraw/odm/2003"
	 xmlns="http://www.w3.org/2000/svg" xmlns:xlink="http://www.w3.org/1999/xlink" x="0px" y="0px" viewBox="0 0 512 512"
	 style="enable-background:new 0 0 512 512;" xml:space="preserve">
<style type="text/css">
	.st0{fill-rule:evenodd;clip-rule:evenodd;fill:url(#SVGID_1_);}
</style>
<linearGradient id="SVGID_1_" gradientUnits="userSpaceOnUse" x1="255.9574" y1="1603.4" x2="255.9574" y2="2022.6" gradientTransform="matrix(1 0 0 1 0 -1582)">
	<stop  offset="0" style="stop-color:#3597DA"/>
	<stop  offset="0.4902" style="stop-color:#616EC4"/>
	<stop  offset="1" style="stop-color:#8C46AE"/>
</linearGradient>
<path class="st0" d="M381.9,429.4c-1.6,0-3.2-0.5-4.6-1.6c-4.4-3.4-30.1-21.9-31.7-25.3c-1.6-3.5-0.7-7.6,2.5-9.8l30.2-20.9
	c8.1-5.6,16.7,6.9,8.6,12.5l-10.3,7.2h46c16.5-0.9,19.1-6.6,19.1-24.3v-100c0-9.8,15.2-9.8,15.2,0v100c0,19.6-4.1,38-33.7,39.5
	c-12,0.7-35.3,0-48.6,0c6.5,5,19.4,11.7,13.2,19.7C386.5,428.4,384.2,429.4,381.9,429.4L381.9,429.4z M426.5,224.9
	c-26.7,0-53.4-3.4-79.9-10.1c-3.4-0.8-5.7-3.9-5.7-7.4V61.6c0-26.1,44.1-40.2,85.5-40.2S512,35.5,512,61.6v145.9
	c0,3.5-2.4,6.5-5.7,7.4C479.8,221.5,453.2,224.9,426.5,224.9L426.5,224.9z M356.1,85.1v11.4c0,10.2,27.4,25,70.4,25
	c42.9,0,70.3-14.8,70.4-25V85.1C463.4,107.3,389.5,107.3,356.1,85.1L356.1,85.1z M356.1,120.1v7.6c0,10.2,27.4,25,70.4,25
	c42.9,0,70.3-14.8,70.4-25v-7.6C463.4,142.2,389.5,142.2,356.1,120.1L356.1,120.1z M356.1,151.2v7.6c0,10.2,27.4,25,70.4,25
	c42.9,0,70.3-14.8,70.4-25v-7.6C463.4,173.3,389.5,173.3,356.1,151.2L356.1,151.2z M356.1,182.3v19.2c46.8,10.9,94.1,10.9,140.7,0
	v-19.2C463.4,204.4,389.5,204.4,356.1,182.3L356.1,182.3z M426.5,36.6c-43,0-70.4,14.8-70.4,25s27.4,25,70.4,25
	c42.9,0,70.4-14.8,70.4-25C496.8,51.4,469.4,36.6,426.5,36.6z M292.6,378.6V242.4H38.9v136.2H130c10.1,0,7.6,14.3,7.7,20.9h56.2
	c0-6.6-2.5-20.9,7.6-20.9L292.6,378.6L292.6,378.6z M23.7,378.6V241.1c0-7.7,6.2-13.9,13.9-13.9h256.3c7.7,0,13.9,6.2,13.9,13.9
	v137.5c27.8,0,23.5-2.1,23.5,31c0,17.1-11.4,31-25.4,31H25.5c-14,0-25.4-13.9-25.4-31C0.2,376.6-4.1,378.6,23.7,378.6z M15.3,393.8
	v15.8c0,9.3,5.4,15.8,10.2,15.8h280.4c4.8,0,10.2-6.5,10.2-15.8v-15.8H209c0,6.6,2.5,20.9-7.6,20.9h-71.3c-10.1,0-7.6-14.3-7.7-20.9
	C122.4,393.8,15.3,393.8,15.3,393.8z M295.1,417.2c-6.5,0-20.4,2.5-20.4-7.6s13.9-7.6,20.4-7.6C304.9,402,304.9,417.2,295.1,417.2z
	 M168.9,220.7c-4.2,0-7.6-3.4-7.6-7.6v-76.8c0-19.6,4.1-38,33.7-39.5c13.2-0.7,72.5,0,86.5,0c-6.5-5-19.4-11.7-13.2-19.7
	c2.5-3.3,7.3-3.9,10.6-1.4c4.5,3.4,30,21.8,31.7,25.3c1.1,3.7,0.9,7.4-2.5,9.8l-30.2,20.9c-7.8,5.4-16.9-6.8-8.6-12.5l10.3-7.2h-84
	c-16.5,0.9-19.1,6.6-19.1,24.3v76.8C176.4,217.3,173,220.7,168.9,220.7L168.9,220.7z M153.4,352.2c-0.3,0-0.7-0.1-1-0.1
	c-2.3-0.6-3.8-2.8-3.2-5.2l15.7-67c0.6-2.3,2.8-3.8,5.2-3.2c2.3,0.6,3.8,2.8,3.2,5.2l-15.7,67C157.1,350.9,155.3,352.2,153.4,352.2z
	 M138.7,345.7c-1,0-1.9-0.3-2.7-1l-32.9-27c-1-0.8-1.6-2-1.6-3.3s0.6-2.5,1.6-3.3l32.9-27c1.9-1.5,4.6-1.2,6.1,0.6s1.2,4.6-0.6,6.1
	l-28.8,23.7l28.8,23.7c1.9,1.5,2.1,4.3,0.6,6.1C141.1,345.1,139.9,345.7,138.7,345.7z M183.9,345.7c-1.2,0-2.5-0.6-3.3-1.6
	c-1.5-1.9-1.2-4.6,0.6-6.1l28.8-23.6l-28.8-23.7c-1.9-1.5-2.1-4.3-0.6-6.1c1.5-1.9,4.3-2.1,6.1-0.6l32.9,27c1,0.8,1.6,2,1.6,3.3
	s-0.6,2.5-1.6,3.3l-32.9,27C185.8,345.4,184.8,345.7,183.9,345.7L183.9,345.7z"/>
</svg>
