<?xml version="1.0" encoding="utf-8"?>
<!-- Generator: Adobe Illustrator 25.4.1, SVG Export Plug-In . SVG Version: 6.00 Build 0)  -->
<svg version="1.1" id="Capa_1" xmlns="http://www.w3.org/2000/svg" xmlns:xlink="http://www.w3.org/1999/xlink" x="0px" y="0px"
	 viewBox="0 0 1500 1500" style="enable-background:new 0 0 1500 1500;" xml:space="preserve">
<style type="text/css">
	.st0{opacity:0.9;fill:#ECF0F1;enable-background:new    ;}
	.st1{opacity:0.75;fill:#ECF0F1;enable-background:new    ;}
	.st2{fill:#ECF0F1;}
</style>
<g id="XR">
	<path class="st0" d="M776.7,433.2h300c97,0,164.1,25.4,206.7,68.9c37.2,36.3,56.2,85.2,56.2,147.8v1.8c0,97-51.7,161.4-130.5,194.9
		l151.4,221.2h-203l-127.8-192.2h-77v192.2H776.7V433.2z M1068.6,737.8c59.8,0,94.3-29,94.3-75.2v-1.8c0-49.9-36.3-75.2-95.2-75.2
		H952.6v152.3H1068.6z"/>
	<path class="st1" d="M354.8,745.1L571.9,433h195.6L561.2,743.3L776.5,1068H576.4L354.8,745.1z"/>
	<path class="st2" d="M354.8,745.1L148.5,433h200.1l212.6,310.3L335.1,1068H139.5L354.8,745.1z"/>
</g>
</svg>
